<svg xmlns="http://www.w3.org/2000/svg">
  <!-- Ability icons -->
  <symbol id="icon-strength" viewBox="0 0 24 24">
    <g fill="none" stroke="currentColor" stroke-width="2" stroke-linecap="round" stroke-linejoin="round">
      <path d="M5 14v-3l4-4 3 3 2-2 4 4v2" />
      <path d="M5 14h4l2 2h2l2-2h4" />
    </g>
  </symbol>
  <symbol id="icon-dexterity" viewBox="0 0 24 24">
    <g fill="none" stroke="currentColor" stroke-width="2" stroke-linecap="round" stroke-linejoin="round">
      <path d="M5 6l14 4-6 6z" />
      <path d="M5 6l4 14 4-4" />
    </g>
  </symbol>
  <symbol id="icon-constitution" viewBox="0 0 24 24">
    <g fill="none" stroke="currentColor" stroke-width="2" stroke-linecap="round" stroke-linejoin="round">
      <path d="M12 4C7 4 5 7 5 10s2 6 7 10c5-4 7-7 7-10s-2-6-7-6z" />
      <path d="M9 10h6" />
    </g>
  </symbol>
  <symbol id="icon-intelligence" viewBox="0 0 24 24">
    <g fill="none" stroke="currentColor" stroke-width="2" stroke-linecap="round" stroke-linejoin="round">
      <path d="M8 8a4 4 0 018 0c0 3-4 5-4 8" />
      <path d="M12 21v-1" />
      <path d="M9 21h6" />
    </g>
  </symbol>
  <symbol id="icon-wisdom" viewBox="0 0 24 24">
    <g fill="none" stroke="currentColor" stroke-width="2" stroke-linecap="round" stroke-linejoin="round">
      <path d="M5 11c2-3 5-5 7-5s5 2 7 5" />
      <path d="M5 15c2 3 5 5 7 5s5-2 7-5" />
      <circle cx="12" cy="13" r="2" />
    </g>
  </symbol>
  <symbol id="icon-charisma" viewBox="0 0 24 24">
    <g fill="none" stroke="currentColor" stroke-width="2" stroke-linecap="round" stroke-linejoin="round">
      <path d="M12 4l1.5 4.5H18l-3.5 2.5L16 15l-4-2.5L8 15l1.5-4L6 8.5h4.5z" />
    </g>
  </symbol>

  <!-- Skill icons -->
  <symbol id="icon-athletics" viewBox="0 0 24 24">
    <g fill="none" stroke="currentColor" stroke-width="2" stroke-linecap="round" stroke-linejoin="round">
      <path d="M6 20l5-9" />
      <path d="M18 20l-5-9" />
      <circle cx="12" cy="5" r="2" />
    </g>
  </symbol>
  <symbol id="icon-acrobatics" viewBox="0 0 24 24">
    <g fill="none" stroke="currentColor" stroke-width="2" stroke-linecap="round" stroke-linejoin="round">
      <path d="M7 20l10-8" />
      <path d="M7 12l10-8" />
      <path d="M12 4l2 16" />
    </g>
  </symbol>
  <symbol id="icon-stealth" viewBox="0 0 24 24">
    <g fill="none" stroke="currentColor" stroke-width="2" stroke-linecap="round" stroke-linejoin="round">
      <path d="M3 12s3-6 9-6 9 6 9 6-3 6-9 6-9-6-9-6z" />
      <circle cx="9" cy="12" r="1" />
      <circle cx="15" cy="12" r="1" />
    </g>
  </symbol>
  <symbol id="icon-perception" viewBox="0 0 24 24">
    <g fill="none" stroke="currentColor" stroke-width="2" stroke-linecap="round" stroke-linejoin="round">
      <circle cx="12" cy="12" r="3" />
      <path d="M12 5v2" />
      <path d="M5 12h2" />
      <path d="M12 19v-2" />
      <path d="M19 12h-2" />
    </g>
  </symbol>
  <symbol id="icon-survival" viewBox="0 0 24 24">
    <g fill="none" stroke="currentColor" stroke-width="2" stroke-linecap="round" stroke-linejoin="round">
      <path d="M12 4l3 4-3 4-3-4z" />
      <path d="M12 12v8" />
      <path d="M8 16h8" />
    </g>
  </symbol>
  <symbol id="icon-arcana" viewBox="0 0 24 24">
    <g fill="none" stroke="currentColor" stroke-width="2" stroke-linecap="round" stroke-linejoin="round">
      <path d="M12 4l3 6-3 10-3-10z" />
      <path d="M8 10h8" />
    </g>
  </symbol>
  <symbol id="icon-persuasion" viewBox="0 0 24 24">
    <g fill="none" stroke="currentColor" stroke-width="2" stroke-linecap="round" stroke-linejoin="round">
      <path d="M5 12c2-3 5-5 7-5s5 2 7 5" />
      <path d="M7 18h10" />
      <path d="M9 21h6" />
    </g>
  </symbol>
  <symbol id="icon-intimidation" viewBox="0 0 24 24">
    <g fill="none" stroke="currentColor" stroke-width="2" stroke-linecap="round" stroke-linejoin="round">
      <path d="M5 15c0-5 3-9 7-9s7 4 7 9" />
      <path d="M9 15h6" />
      <path d="M10 18h4" />
    </g>
  </symbol>
  <symbol id="icon-medicine" viewBox="0 0 24 24">
    <g fill="none" stroke="currentColor" stroke-width="2" stroke-linecap="round" stroke-linejoin="round">
      <rect x="7" y="4" width="10" height="14" rx="2" />
      <path d="M12 8v6" />
      <path d="M9 11h6" />
    </g>
  </symbol>
  <symbol id="icon-history" viewBox="0 0 24 24">
    <g fill="none" stroke="currentColor" stroke-width="2" stroke-linecap="round" stroke-linejoin="round">
      <path d="M5 5h12l2 2v12H7l-2-2z" />
      <path d="M9 9h6" />
      <path d="M9 13h6" />
    </g>
  </symbol>

  <!-- Item icons -->
  <symbol id="icon-sword" viewBox="0 0 24 24">
    <g fill="none" stroke="currentColor" stroke-width="2" stroke-linecap="round" stroke-linejoin="round">
      <path d="M4 20l4-4" />
      <path d="M8 16l5-5 3 3-5 5" />
      <path d="M16 8l4-4" />
      <path d="M14 6l4 4" />
    </g>
  </symbol>
  <symbol id="icon-axe" viewBox="0 0 24 24">
    <g fill="none" stroke="currentColor" stroke-width="2" stroke-linecap="round" stroke-linejoin="round">
      <path d="M5 5c4 0 6 2 8 6" />
      <path d="M5 5l4 4" />
      <path d="M13 11l6-6v6c-3 0-5 1-6 3" />
      <path d="M13 11l-5 9" />
    </g>
  </symbol>
  <symbol id="icon-bow" viewBox="0 0 24 24">
    <g fill="none" stroke="currentColor" stroke-width="2" stroke-linecap="round" stroke-linejoin="round">
      <path d="M5 5c4 3 4 11 0 14" />
      <path d="M19 5c-4 3-4 11 0 14" />
      <path d="M5 12h14" />
      <path d="M12 3v18" />
    </g>
  </symbol>
  <symbol id="icon-staff" viewBox="0 0 24 24">
    <g fill="none" stroke="currentColor" stroke-width="2" stroke-linecap="round" stroke-linejoin="round">
      <path d="M12 4a4 4 0 014 4c0 3-4 4-4 8" />
      <path d="M12 20v-4" />
    </g>
  </symbol>
  <symbol id="icon-shield" viewBox="0 0 24 24">
    <g fill="none" stroke="currentColor" stroke-width="2" stroke-linecap="round" stroke-linejoin="round">
      <path d="M12 3l8 3v6c0 5-3.5 8.5-8 9-4.5-.5-8-4-8-9V6z" />
      <path d="M12 3v18" />
    </g>
  </symbol>
  <symbol id="icon-potion" viewBox="0 0 24 24">
    <g fill="none" stroke="currentColor" stroke-width="2" stroke-linecap="round" stroke-linejoin="round">
      <path d="M10 4h4" />
      <path d="M9 7h6l1 2v6l-4 4-4-4V9z" />
      <path d="M9 12h6" />
    </g>
  </symbol>
  <symbol id="icon-scroll" viewBox="0 0 24 24">
    <g fill="none" stroke="currentColor" stroke-width="2" stroke-linecap="round" stroke-linejoin="round">
      <path d="M7 5h10v12H9l-2-2z" />
      <path d="M7 5v10h4" />
      <path d="M13 9h2" />
      <path d="M13 12h2" />
    </g>
  </symbol>
  <symbol id="icon-coin" viewBox="0 0 24 24">
    <g fill="none" stroke="currentColor" stroke-width="2" stroke-linecap="round" stroke-linejoin="round">
      <ellipse cx="12" cy="8" rx="6" ry="3" />
      <path d="M6 8v8c0 1.7 2.7 3 6 3s6-1.3 6-3V8" />
    </g>
  </symbol>
  <symbol id="icon-lockpick" viewBox="0 0 24 24">
    <g fill="none" stroke="currentColor" stroke-width="2" stroke-linecap="round" stroke-linejoin="round">
      <path d="M6 6l6 6" />
      <path d="M10 10l4-4" />
      <path d="M18 18l-4-4" />
      <path d="M10 10l-4 4" />
    </g>
  </symbol>
  <symbol id="icon-backpack" viewBox="0 0 24 24">
    <g fill="none" stroke="currentColor" stroke-width="2" stroke-linecap="round" stroke-linejoin="round">
      <rect x="6" y="5" width="12" height="14" rx="3" />
      <path d="M9 5v-1a3 3 0 016 0v1" />
      <path d="M9 12h6" />
    </g>
  </symbol>

  <!-- System icons -->
  <symbol id="icon-menu" viewBox="0 0 24 24">
    <g fill="none" stroke="currentColor" stroke-width="2" stroke-linecap="round" stroke-linejoin="round">
      <path d="M4 6h16" />
      <path d="M4 12h16" />
      <path d="M4 18h16" />
    </g>
  </symbol>
  <symbol id="icon-map" viewBox="0 0 24 24">
    <g fill="none" stroke="currentColor" stroke-width="2" stroke-linecap="round" stroke-linejoin="round">
      <path d="M4 5l6-2 4 2 6-2v16l-6 2-4-2-6 2z" />
      <path d="M10 3v16" />
      <path d="M14 5v16" />
    </g>
  </symbol>
  <symbol id="icon-quest" viewBox="0 0 24 24">
    <g fill="none" stroke="currentColor" stroke-width="2" stroke-linecap="round" stroke-linejoin="round">
      <path d="M6 4h10l2 2v12H8l-2-2z" />
      <path d="M10 8h4" />
      <path d="M10 12h4" />
      <path d="M10 16h4" />
    </g>
  </symbol>
  <symbol id="icon-journal" viewBox="0 0 24 24">
    <g fill="none" stroke="currentColor" stroke-width="2" stroke-linecap="round" stroke-linejoin="round">
      <path d="M6 5h12v14H8l-2-2z" />
      <path d="M10 9h6" />
      <path d="M10 13h4" />
    </g>
  </symbol>
  <symbol id="icon-dialogue" viewBox="0 0 24 24">
    <g fill="none" stroke="currentColor" stroke-width="2" stroke-linecap="round" stroke-linejoin="round">
      <path d="M5 5h14v9H9l-4 4z" />
      <path d="M9 9h6" />
      <path d="M9 12h4" />
    </g>
  </symbol>
  <symbol id="icon-settings" viewBox="0 0 24 24">
    <g fill="none" stroke="currentColor" stroke-width="2" stroke-linecap="round" stroke-linejoin="round">
      <circle cx="12" cy="12" r="3" />
      <path d="M4 12h2" />
      <path d="M18 12h2" />
      <path d="M12 4v2" />
      <path d="M12 18v2" />
      <path d="M6 6l1.5 1.5" />
      <path d="M17 17l1 1" />
      <path d="M6 18l1.5-1.5" />
      <path d="M17 7l1-1" />
    </g>
  </symbol>
  <symbol id="icon-audio" viewBox="0 0 24 24">
    <g fill="none" stroke="currentColor" stroke-width="2" stroke-linecap="round" stroke-linejoin="round">
      <path d="M5 9v6h3l5 4V5L8 9z" />
      <path d="M17 9a3 3 0 010 6" />
      <path d="M19 7a5 5 0 010 10" />
    </g>
  </symbol>
  <symbol id="icon-play" viewBox="0 0 24 24">
    <g fill="none" stroke="currentColor" stroke-width="2" stroke-linecap="round" stroke-linejoin="round">
      <path d="M8 5l10 7-10 7z" />
    </g>
  </symbol>
  <symbol id="icon-pause" viewBox="0 0 24 24">
    <g fill="none" stroke="currentColor" stroke-width="2" stroke-linecap="round" stroke-linejoin="round">
      <path d="M9 6v12" />
      <path d="M15 6v12" />
    </g>
  </symbol>
  <symbol id="icon-stop" viewBox="0 0 24 24">
    <g fill="none" stroke="currentColor" stroke-width="2" stroke-linecap="round" stroke-linejoin="round">
      <rect x="7" y="7" width="10" height="10" rx="2" />
    </g>
  </symbol>
  <symbol id="icon-back" viewBox="0 0 24 24">
    <g fill="none" stroke="currentColor" stroke-width="2" stroke-linecap="round" stroke-linejoin="round">
      <path d="M15 5l-6 7 6 7" />
    </g>
  </symbol>
  <symbol id="icon-close" viewBox="0 0 24 24">
    <path d="M6 6l12 12M18 6L6 18" fill="none" stroke="currentColor" stroke-width="2" stroke-linecap="round" />
  </symbol>
  <symbol id="icon-check" viewBox="0 0 24 24">
    <path d="M5 13l4 4L19 7" fill="none" stroke="currentColor" stroke-width="2" stroke-linecap="round" stroke-linejoin="round" />
  </symbol>
  <symbol id="icon-warning" viewBox="0 0 24 24">
    <g fill="none" stroke="currentColor" stroke-width="2" stroke-linecap="round" stroke-linejoin="round">
      <path d="M3 20h18L12 4z" />
      <path d="M12 10v4" />
      <circle cx="12" cy="17" r="1" fill="currentColor" />
    </g>
  </symbol>

  <!-- Faction icons -->
  <symbol id="icon-crown" viewBox="0 0 24 24">
    <g fill="none" stroke="currentColor" stroke-width="2" stroke-linecap="round" stroke-linejoin="round">
      <path d="M4 9l4 3 4-6 4 6 4-3v7H4z" />
    </g>
  </symbol>
  <symbol id="icon-mask" viewBox="0 0 24 24">
    <g fill="none" stroke="currentColor" stroke-width="2" stroke-linecap="round" stroke-linejoin="round">
      <path d="M5 6c2 6 4 9 7 9s5-3 7-9c0 7-2 12-7 12S5 13 5 6z" />
      <path d="M9 11h0.01" />
      <path d="M15 11h0.01" />
    </g>
  </symbol>
  <symbol id="icon-eye" viewBox="0 0 24 24">
    <g fill="none" stroke="currentColor" stroke-width="2" stroke-linecap="round" stroke-linejoin="round">
      <path d="M2 12s4-6 10-6 10 6 10 6-4 6-10 6S2 12 2 12z" />
      <circle cx="12" cy="12" r="2" />
    </g>
  </symbol>
  <symbol id="icon-flame" viewBox="0 0 24 24">
    <g fill="none" stroke="currentColor" stroke-width="2" stroke-linecap="round" stroke-linejoin="round">
      <path d="M12 4s3 3 3 6-1.5 4-3 4-3-1-3-3 2-3 0-6c-2 2-4 5-4 8a7 7 0 0014 0c0-3-2-6-7-9z" />
    </g>
  </symbol>

  <!-- Combat state icons -->
  <symbol id="icon-bleed" viewBox="0 0 24 24">
    <g fill="none" stroke="currentColor" stroke-width="2" stroke-linecap="round" stroke-linejoin="round">
      <path d="M12 3s4 5 4 8a4 4 0 11-8 0c0-3 4-8 4-8z" />
    </g>
  </symbol>
  <symbol id="icon-poison" viewBox="0 0 24 24">
    <g fill="none" stroke="currentColor" stroke-width="2" stroke-linecap="round" stroke-linejoin="round">
      <circle cx="12" cy="7" r="3" />
      <path d="M9 10l-4 8h14l-4-8" />
      <path d="M9 18c0 1.5 1.3 3 3 3s3-1.5 3-3" />
    </g>
  </symbol>
  <symbol id="icon-burn" viewBox="0 0 24 24">
    <g fill="none" stroke="currentColor" stroke-width="2" stroke-linecap="round" stroke-linejoin="round">
      <path d="M12 4s-2 2-2 4 2 3 2 5-1 3-3 3-3-2-3-4 2-6 6-8c2 2 4 5 4 8a6 6 0 11-12 0" />
    </g>
  </symbol>
  <symbol id="icon-stun" viewBox="0 0 24 24">
    <g fill="none" stroke="currentColor" stroke-width="2" stroke-linecap="round" stroke-linejoin="round">
      <path d="M8 4l8 6-5 1 5 9-10-7 4-1z" />
    </g>
  </symbol>
  <symbol id="icon-slow" viewBox="0 0 24 24">
    <g fill="none" stroke="currentColor" stroke-width="2" stroke-linecap="round" stroke-linejoin="round">
      <circle cx="12" cy="12" r="8" />
      <path d="M12 8v4l3 3" />
    </g>
  </symbol>

  <!-- Reward/Achievement -->
  <symbol id="icon-trophy" viewBox="0 0 24 24">
    <g fill="none" stroke="currentColor" stroke-width="2" stroke-linecap="round" stroke-linejoin="round">
      <path d="M8 4h8l1 4a5 5 0 01-5 5 5 5 0 01-5-5z" />
      <path d="M8 4H5a3 3 0 003 3" />
      <path d="M16 4h3a3 3 0 01-3 3" />
      <path d="M12 13v4" />
      <path d="M9 21h6" />
    </g>
  </symbol>
</svg>
