<svg xmlns="http://www.w3.org/2000/svg" style="display:none">
  <symbol id="menu" viewBox="0 0 24 24">
    <g fill="none" stroke="currentColor" stroke-width="2" stroke-linecap="round" stroke-linejoin="round">
      <path d="M4 6h16"/>
      <path d="M4 12h16"/>
      <path d="M4 18h16"/>
    </g>
  </symbol>
  <symbol id="map" viewBox="0 0 24 24">
    <g fill="none" stroke="currentColor" stroke-width="2" stroke-linejoin="round" stroke-linecap="round">
      <path d="M4 5l6-2 4 2 6-2v16l-6 2-4-2-6 2z"/>
      <path d="M10 3v16"/>
      <path d="M14 5v16"/>
      <path d="M4 9l6-2 4 2 6-2"/>
    </g>
  </symbol>
  <symbol id="quest" viewBox="0 0 24 24">
    <g fill="none" stroke="currentColor" stroke-width="2" stroke-linejoin="round" stroke-linecap="round">
      <path d="M6 4h12l1 3-7 13-7-13z"/>
      <path d="M12 9v3"/>
      <circle cx="12" cy="6" r="1" fill="currentColor"/>
    </g>
  </symbol>
  <symbol id="journal" viewBox="0 0 24 24">
    <g fill="none" stroke="currentColor" stroke-width="2" stroke-linejoin="round" stroke-linecap="round">
      <path d="M6 4h10a4 4 0 0 1 4 4v10H6z"/>
      <path d="M6 4a2 2 0 0 0-2 2v14h14"/>
      <path d="M10 8h6"/>
      <path d="M10 12h6"/>
    </g>
  </symbol>
  <symbol id="dialogue" viewBox="0 0 24 24">
    <g fill="none" stroke="currentColor" stroke-width="2" stroke-linecap="round" stroke-linejoin="round">
      <path d="M4 5h16v10H9l-5 4z"/>
      <path d="M9 9h6"/>
    </g>
  </symbol>
  <symbol id="chevron" viewBox="0 0 24 24">
    <path d="M6 9l6 6 6-6" fill="none" stroke="currentColor" stroke-width="2" stroke-linecap="round" stroke-linejoin="round"/>
  </symbol>
  <symbol id="settings" viewBox="0 0 24 24">
    <g fill="none" stroke="currentColor" stroke-width="2" stroke-linecap="round" stroke-linejoin="round">
      <circle cx="12" cy="12" r="3"/>
      <path d="M3 12h2m14 0h2M12 3v2m0 14v2M5 5l1.5 1.5M17.5 17.5 19 19M19 5l-1.5 1.5M5 19l1.5-1.5"/>
    </g>
  </symbol>
  <symbol id="audio" viewBox="0 0 24 24">
    <g fill="none" stroke="currentColor" stroke-width="2" stroke-linecap="round" stroke-linejoin="round">
      <path d="M5 10v4h3l4 3V7l-4 3z"/>
      <path d="M16 9a3 3 0 0 1 0 6"/>
      <path d="M19 7a6 6 0 0 1 0 10"/>
    </g>
  </symbol>
  <symbol id="play" viewBox="0 0 24 24">
    <polygon points="8,5 19,12 8,19" fill="currentColor" stroke="currentColor" stroke-width="2" stroke-linejoin="round"/>
  </symbol>
  <symbol id="pause" viewBox="0 0 24 24">
    <g fill="none" stroke="currentColor" stroke-width="2" stroke-linecap="round">
      <path d="M9 6v12"/>
      <path d="M15 6v12"/>
    </g>
  </symbol>
  <symbol id="stop" viewBox="0 0 24 24">
    <rect x="7" y="7" width="10" height="10" fill="currentColor" rx="2"/>
  </symbol>
  <symbol id="back" viewBox="0 0 24 24">
    <g fill="none" stroke="currentColor" stroke-width="2" stroke-linecap="round" stroke-linejoin="round">
      <path d="M7 12h10"/>
      <path d="M11 8l-4 4 4 4"/>
    </g>
  </symbol>
  <symbol id="close" viewBox="0 0 24 24">
    <g fill="none" stroke="currentColor" stroke-width="2" stroke-linecap="round">
      <path d="M6 6l12 12"/>
      <path d="M18 6l-12 12"/>
    </g>
  </symbol>
  <symbol id="check" viewBox="0 0 24 24">
    <path fill="none" stroke="currentColor" stroke-width="2" stroke-linecap="round" stroke-linejoin="round" d="M5 13l4 4 10-10"/>
  </symbol>
  <symbol id="warning" viewBox="0 0 24 24">
    <g fill="none" stroke="currentColor" stroke-width="2" stroke-linecap="round" stroke-linejoin="round">
      <path d="M12 3 2 21h20z"/>
      <path d="M12 9v5"/>
      <circle cx="12" cy="17" r="1" fill="currentColor"/>
    </g>
  </symbol>
  <symbol id="strength" viewBox="0 0 24 24">
    <g fill="none" stroke="currentColor" stroke-width="2" stroke-linecap="round" stroke-linejoin="round">
      <path d="M5 14c2-5 5-7 7-7s5 2 7 7"/>
      <path d="M4 19h16"/>
      <path d="M9 11l3 3 3-3"/>
    </g>
  </symbol>
  <symbol id="dexterity" viewBox="0 0 24 24">
    <g fill="none" stroke="currentColor" stroke-width="2" stroke-linecap="round" stroke-linejoin="round">
      <path d="M5 19l14-14"/>
      <path d="M7 7l6 1-1 6"/>
      <path d="M12 12l5 5"/>
    </g>
  </symbol>
  <symbol id="constitution" viewBox="0 0 24 24">
    <g fill="none" stroke="currentColor" stroke-width="2" stroke-linecap="round" stroke-linejoin="round">
      <rect x="6" y="4" width="12" height="16" rx="3"/>
      <path d="M9 8h6"/>
      <path d="M9 12h6"/>
    </g>
  </symbol>
  <symbol id="intelligence" viewBox="0 0 24 24">
    <g fill="none" stroke="currentColor" stroke-width="2" stroke-linecap="round" stroke-linejoin="round">
      <path d="M12 4a6 6 0 0 0-6 6c0 3 2 4 2 6h8c0-2 2-3 2-6a6 6 0 0 0-6-6z"/>
      <path d="M10 16v2"/>
      <path d="M14 16v2"/>
    </g>
  </symbol>
  <symbol id="wisdom" viewBox="0 0 24 24">
    <g fill="none" stroke="currentColor" stroke-width="2" stroke-linecap="round" stroke-linejoin="round">
      <path d="M4 12s3-6 8-6 8 6 8 6-3 6-8 6-8-6-8-6z"/>
      <circle cx="12" cy="12" r="2"/>
    </g>
  </symbol>
  <symbol id="charisma" viewBox="0 0 24 24">
    <g fill="none" stroke="currentColor" stroke-width="2" stroke-linecap="round" stroke-linejoin="round">
      <path d="M12 4c-3 0-5 2-5 5 0 2 1 3 1 4l4 7 4-7c0-1 1-2 1-4 0-3-2-5-5-5z"/>
      <path d="M9 9h6"/>
    </g>
  </symbol>
  <symbol id="athletics" viewBox="0 0 24 24">
    <g fill="none" stroke="currentColor" stroke-width="2" stroke-linecap="round" stroke-linejoin="round">
      <circle cx="12" cy="5" r="2"/>
      <path d="M6 21l2-6 4-4 4 4 2 6"/>
      <path d="M7 12h5"/>
    </g>
  </symbol>
  <symbol id="acrobatics" viewBox="0 0 24 24">
    <g fill="none" stroke="currentColor" stroke-width="2" stroke-linecap="round" stroke-linejoin="round">
      <path d="M5 16l14-8"/>
      <path d="M9 7l3 3 3-3"/>
      <path d="M12 10v10"/>
    </g>
  </symbol>
  <symbol id="stealth" viewBox="0 0 24 24">
    <g fill="none" stroke="currentColor" stroke-width="2" stroke-linejoin="round" stroke-linecap="round">
      <path d="M3 12s4-6 9-6 9 6 9 6-4 6-9 6-9-6-9-6z"/>
      <circle cx="9" cy="12" r="2"/>
      <circle cx="15" cy="12" r="2"/>
    </g>
  </symbol>
  <symbol id="perception" viewBox="0 0 24 24">
    <g fill="none" stroke="currentColor" stroke-width="2" stroke-linejoin="round" stroke-linecap="round">
      <circle cx="12" cy="12" r="3"/>
      <path d="M3 12s4-7 9-7 9 7 9 7-4 7-9 7-9-7-9-7z"/>
      <path d="M12 3v2"/>
      <path d="M12 19v2"/>
    </g>
  </symbol>
  <symbol id="survival" viewBox="0 0 24 24">
    <g fill="none" stroke="currentColor" stroke-width="2" stroke-linecap="round" stroke-linejoin="round">
      <path d="M12 3l4 7-4 11-4-11z"/>
      <path d="M12 3v18"/>
    </g>
  </symbol>
  <symbol id="arcana" viewBox="0 0 24 24">
    <g fill="none" stroke="currentColor" stroke-width="2" stroke-linejoin="round" stroke-linecap="round">
      <circle cx="12" cy="12" r="3"/>
      <path d="M12 3v3"/>
      <path d="M12 18v3"/>
      <path d="M5.2 7.2l2.1 2.1"/>
      <path d="M16.7 14.7l2.1 2.1"/>
      <path d="M3 12h3"/>
      <path d="M18 12h3"/>
    </g>
  </symbol>
  <symbol id="persuasion" viewBox="0 0 24 24">
    <g fill="none" stroke="currentColor" stroke-width="2" stroke-linecap="round" stroke-linejoin="round">
      <path d="M5 6h10a4 4 0 0 1 0 8H9l-4 4V6z"/>
    </g>
  </symbol>
  <symbol id="intimidation" viewBox="0 0 24 24">
    <g fill="none" stroke="currentColor" stroke-width="2" stroke-linecap="round" stroke-linejoin="round">
      <path d="M5 4h14l-2 10-5 5-5-5z"/>
      <path d="M10 8h4"/>
      <path d="M9 12h6"/>
    </g>
  </symbol>
  <symbol id="medicine" viewBox="0 0 24 24">
    <g fill="none" stroke="currentColor" stroke-width="2" stroke-linecap="round" stroke-linejoin="round">
      <rect x="5" y="5" width="14" height="14" rx="3"/>
      <path d="M12 8v8"/>
      <path d="M8 12h8"/>
    </g>
  </symbol>
  <symbol id="history" viewBox="0 0 24 24">
    <g fill="none" stroke="currentColor" stroke-width="2" stroke-linecap="round" stroke-linejoin="round">
      <path d="M4 6a3 3 0 0 1 3-3h11v18H7a3 3 0 0 1-3-3z"/>
      <path d="M7 6h11"/>
      <path d="M7 10h8"/>
      <path d="M7 14h6"/>
    </g>
  </symbol>
  <symbol id="sword" viewBox="0 0 24 24">
    <g fill="none" stroke="currentColor" stroke-width="2" stroke-linejoin="round" stroke-linecap="round">
      <path d="M4 20l4-4"/>
      <path d="M8 16l10-10 2 2-10 10z"/>
      <path d="M12 12l4 4"/>
    </g>
  </symbol>
  <symbol id="axe" viewBox="0 0 24 24">
    <g fill="none" stroke="currentColor" stroke-width="2" stroke-linecap="round" stroke-linejoin="round">
      <path d="M5 5h4l2 3-2 3H5z"/>
      <path d="M11 8l8 8"/>
      <path d="M17 12l4-2-2 4"/>
    </g>
  </symbol>
  <symbol id="bow" viewBox="0 0 24 24">
    <g fill="none" stroke="currentColor" stroke-width="2" stroke-linecap="round" stroke-linejoin="round">
      <path d="M4 4s6 4 6 8-6 8-6 8"/>
      <path d="M20 4s-6 4-6 8 6 8 6 8"/>
      <path d="M4 12h16"/>
      <path d="M12 4v16"/>
    </g>
  </symbol>
  <symbol id="staff" viewBox="0 0 24 24">
    <g fill="none" stroke="currentColor" stroke-width="2" stroke-linejoin="round" stroke-linecap="round">
      <path d="M12 3c-2 0-3 1-3 3s2 3 2 5-1 6-1 10"/>
      <path d="M12 3c2 0 3 1 3 3s-2 3-2 5 1 6 1 10"/>
    </g>
  </symbol>
  <symbol id="shield" viewBox="0 0 24 24">
    <g fill="none" stroke="currentColor" stroke-width="2" stroke-linejoin="round" stroke-linecap="round">
      <path d="M12 3l8 3v6c0 5-4 9-8 9s-8-4-8-9V6z"/>
      <path d="M12 3v15"/>
    </g>
  </symbol>
  <symbol id="potion" viewBox="0 0 24 24">
    <g fill="none" stroke="currentColor" stroke-width="2" stroke-linecap="round" stroke-linejoin="round">
      <path d="M9 3h6"/>
      <path d="M10 3v4l-4 6a5 5 0 0 0 4 8h4a5 5 0 0 0 4-8l-4-6V3"/>
      <path d="M9 13h6"/>
    </g>
  </symbol>
  <symbol id="scroll" viewBox="0 0 24 24">
    <g fill="none" stroke="currentColor" stroke-width="2" stroke-linecap="round" stroke-linejoin="round">
      <path d="M7 3h10a2 2 0 0 1 0 4H7a2 2 0 1 1 0-4z"/>
      <path d="M7 3v14a4 4 0 0 0 4 4h2a4 4 0 0 0 4-4V3"/>
    </g>
  </symbol>
  <symbol id="coin" viewBox="0 0 24 24">
    <g fill="none" stroke="currentColor" stroke-width="2" stroke-linecap="round" stroke-linejoin="round">
      <ellipse cx="12" cy="7" rx="7" ry="3"/>
      <path d="M5 7v7c0 1.7 3.1 3 7 3s7-1.3 7-3V7"/>
      <path d="M5 14v3c0 1.7 3.1 3 7 3s7-1.3 7-3v-3"/>
    </g>
  </symbol>
  <symbol id="lockpick" viewBox="0 0 24 24">
    <g fill="none" stroke="currentColor" stroke-width="2" stroke-linecap="round" stroke-linejoin="round">
      <path d="M5 12h6l4-9"/>
      <circle cx="17" cy="17" r="4"/>
      <path d="M17 15v4"/>
    </g>
  </symbol>
  <symbol id="backpack" viewBox="0 0 24 24">
    <g fill="none" stroke="currentColor" stroke-width="2" stroke-linecap="round" stroke-linejoin="round">
      <rect x="6" y="5" width="12" height="14" rx="3"/>
      <path d="M9 9h6"/>
      <path d="M9 13h6"/>
      <path d="M9 5l1-2h4l1 2"/>
    </g>
  </symbol>
  <symbol id="crown" viewBox="0 0 24 24">
    <g fill="none" stroke="currentColor" stroke-width="2" stroke-linejoin="round" stroke-linecap="round">
      <path d="M4 9l3 6h10l3-6-4-2-4 3-4-3z"/>
      <path d="M7 15v2h10v-2"/>
    </g>
  </symbol>
  <symbol id="mask" viewBox="0 0 24 24">
    <g fill="none" stroke="currentColor" stroke-width="2" stroke-linecap="round" stroke-linejoin="round">
      <path d="M4 5h16v6c0 5-4 8-8 8s-8-3-8-8z"/>
      <path d="M8 11c1 1 3 1 4 0 1 1 3 1 4 0"/>
    </g>
  </symbol>
  <symbol id="eye" viewBox="0 0 24 24">
    <g fill="none" stroke="currentColor" stroke-width="2" stroke-linejoin="round" stroke-linecap="round">
      <path d="M3 12s4-7 9-7 9 7 9 7-4 7-9 7-9-7-9-7z"/>
      <circle cx="12" cy="12" r="3"/>
    </g>
  </symbol>
  <symbol id="flame" viewBox="0 0 24 24">
    <g fill="none" stroke="currentColor" stroke-width="2" stroke-linecap="round" stroke-linejoin="round">
      <path d="M12 3c3 4 6 6 6 10a6 6 0 0 1-12 0c0-4 3-6 6-10z"/>
      <path d="M12 13a2 2 0 0 0 4 0c0-1.5-1-2.5-2-3.5"/>
    </g>
  </symbol>
  <symbol id="bleed" viewBox="0 0 24 24">
    <g fill="none" stroke="currentColor" stroke-width="2" stroke-linecap="round" stroke-linejoin="round">
      <path d="M12 3c2 3 5 6 5 9a5 5 0 0 1-10 0c0-3 3-6 5-9z"/>
      <path d="M12 14v3"/>
    </g>
  </symbol>
  <symbol id="poison" viewBox="0 0 24 24">
    <g fill="none" stroke="currentColor" stroke-width="2" stroke-linecap="round" stroke-linejoin="round">
      <circle cx="12" cy="8" r="3"/>
      <path d="M7 11h10l2 3-2 5H7l-2-5z"/>
      <path d="M9 15h6"/>
    </g>
  </symbol>
  <symbol id="burn" viewBox="0 0 24 24">
    <g fill="none" stroke="currentColor" stroke-width="2" stroke-linecap="round" stroke-linejoin="round">
      <path d="M12 4c3 3 5 5 5 8a5 5 0 0 1-10 0c0-3 2-5 5-8z"/>
      <path d="M12 11a2 2 0 0 0 4 0 2 2 0 0 0-1-1.7"/>
    </g>
  </symbol>
  <symbol id="stun" viewBox="0 0 24 24">
    <g fill="none" stroke="currentColor" stroke-width="2" stroke-linejoin="round" stroke-linecap="round">
      <path d="M12 3l-3 6h4l-3 6"/>
      <path d="M14 9h4l-3 6"/>
    </g>
  </symbol>
  <symbol id="slow" viewBox="0 0 24 24">
    <g fill="none" stroke="currentColor" stroke-width="2" stroke-linecap="round" stroke-linejoin="round">
      <circle cx="12" cy="12" r="7"/>
      <path d="M12 9v4l2 2"/>
    </g>
  </symbol>
  <symbol id="search" viewBox="0 0 24 24">
    <g fill="none" stroke="currentColor" stroke-width="2" stroke-linecap="round" stroke-linejoin="round">
      <circle cx="11" cy="11" r="6"/>
      <path d="M20 20l-3.5-3.5"/>
    </g>
  </symbol>
  <symbol id="bookmark" viewBox="0 0 24 24">
    <g fill="none" stroke="currentColor" stroke-width="2" stroke-linejoin="round" stroke-linecap="round">
      <path d="M7 4h10v16l-5-3-5 3z"/>
    </g>
  </symbol>
  <symbol id="trophy" viewBox="0 0 24 24">
    <g fill="none" stroke="currentColor" stroke-width="2" stroke-linecap="round" stroke-linejoin="round">
      <path d="M8 4h8l1 4a4 4 0 0 1-4 4h-2a4 4 0 0 1-4-4z"/>
      <path d="M10 12v2a3 3 0 0 0 6 0v-2"/>
      <path d="M9 20h6"/>
      <path d="M10 18h4"/>
    </g>
  </symbol>
  <symbol id="gamepad" viewBox="0 0 24 24">
    <g fill="none" stroke="currentColor" stroke-width="2" stroke-linecap="round" stroke-linejoin="round">
      <rect x="3" y="9" width="18" height="8" rx="4"/>
      <path d="M8 13h2"/>
      <path d="M9 12v2"/>
      <circle cx="16" cy="13" r="1" fill="currentColor"/>
      <circle cx="18" cy="11" r="1" fill="currentColor"/>
    </g>
  </symbol>
</svg>
