<svg xmlns="http://www.w3.org/2000/svg" style="display:none">
<symbol id="icon-strength" viewBox="0 0 24 24" fill="none" stroke="currentColor" stroke-width="2" stroke-linecap="round" stroke-linejoin="round">
  <path d="M4 12h16"/><path d="M4 12l2-3h2l2 3-2 3H6z"/><path d="M20 12l-2-3h-2l-2 3 2 3h2z"/>
</symbol>
<symbol id="icon-dexterity" viewBox="0 0 24 24" fill="none" stroke="currentColor" stroke-width="2" stroke-linecap="round" stroke-linejoin="round">
  <path d="M6 18l6-12 6 12"/><path d="M8 14h8"/>
</symbol>
<symbol id="icon-constitution" viewBox="0 0 24 24" fill="none" stroke="currentColor" stroke-width="2" stroke-linecap="round" stroke-linejoin="round">
  <circle cx="12" cy="12" r="6"/><path d="M12 6v12"/><path d="M6 12h12"/>
</symbol>
<symbol id="icon-intelligence" viewBox="0 0 24 24" fill="none" stroke="currentColor" stroke-width="2" stroke-linecap="round" stroke-linejoin="round">
  <path d="M12 4a5 5 0 0 1 5 5c0 3-5 11-5 11s-5-8-5-11a5 5 0 0 1 5-5z"/><path d="M10 9h4"/>
</symbol>
<symbol id="icon-wisdom" viewBox="0 0 24 24" fill="none" stroke="currentColor" stroke-width="2" stroke-linecap="round" stroke-linejoin="round">
  <path d="M4 10l8-6 8 6-8 10z"/><path d="M12 10v4"/>
</symbol>
<symbol id="icon-charisma" viewBox="0 0 24 24" fill="none" stroke="currentColor" stroke-width="2" stroke-linecap="round" stroke-linejoin="round">
  <circle cx="12" cy="8" r="3"/><path d="M6 20c1.2-2.5 3.6-4 6-4s4.8 1.5 6 4"/>
</symbol>
<symbol id="icon-athletics" viewBox="0 0 24 24" fill="none" stroke="currentColor" stroke-width="2" stroke-linecap="round" stroke-linejoin="round">
  <path d="M6 18l4-8 4 2 4-6"/><path d="M6 8h6"/>
</symbol>
<symbol id="icon-acrobatics" viewBox="0 0 24 24" fill="none" stroke="currentColor" stroke-width="2" stroke-linecap="round" stroke-linejoin="round">
  <path d="M5 12l7-7 7 7"/><path d="M12 5v14"/>
</symbol>
<symbol id="icon-stealth" viewBox="0 0 24 24" fill="none" stroke="currentColor" stroke-width="2" stroke-linecap="round" stroke-linejoin="round">
  <path d="M3 12s4-5 9-5 9 5 9 5-4 5-9 5-9-5-9-5z"/><circle cx="9" cy="12" r="1"/><circle cx="15" cy="12" r="1"/>
</symbol>
<symbol id="icon-perception" viewBox="0 0 24 24" fill="none" stroke="currentColor" stroke-width="2" stroke-linecap="round" stroke-linejoin="round">
  <circle cx="12" cy="12" r="7"/><path d="M12 9v3l2 2"/>
</symbol>
<symbol id="icon-survival" viewBox="0 0 24 24" fill="none" stroke="currentColor" stroke-width="2" stroke-linecap="round" stroke-linejoin="round">
  <path d="M12 3l7 7-7 11-7-11z"/><path d="M12 7v6"/>
</symbol>
<symbol id="icon-arcana" viewBox="0 0 24 24" fill="none" stroke="currentColor" stroke-width="2" stroke-linecap="round" stroke-linejoin="round">
  <path d="M12 4l3 5h5l-4 4 1.5 6L12 16l-5.5 3 1.5-6-4-4h5z"/>
</symbol>
<symbol id="icon-persuasion" viewBox="0 0 24 24" fill="none" stroke="currentColor" stroke-width="2" stroke-linecap="round" stroke-linejoin="round">
  <path d="M6 9a6 6 0 0 1 12 0v5a6 6 0 1 1-12 0z"/><path d="M9 12h6"/>
</symbol>
<symbol id="icon-intimidation" viewBox="0 0 24 24" fill="none" stroke="currentColor" stroke-width="2" stroke-linecap="round" stroke-linejoin="round">
  <path d="M5 7l7-4 7 4v6c0 4-3 7-7 7s-7-3-7-7z"/><path d="M9 11h6"/><path d="M10 15h4"/>
</symbol>
<symbol id="icon-medicine" viewBox="0 0 24 24" fill="none" stroke="currentColor" stroke-width="2" stroke-linecap="round" stroke-linejoin="round">
  <path d="M10 3h4v6h6v4h-6v6h-4v-6H4V9h6z"/>
</symbol>
<symbol id="icon-history" viewBox="0 0 24 24" fill="none" stroke="currentColor" stroke-width="2" stroke-linecap="round" stroke-linejoin="round">
  <path d="M6 4h12"/><path d="M6 20h12"/><path d="M6 4v16"/><path d="M12 8h4"/><path d="M12 12h4"/><path d="M8 8h2"/><path d="M8 12h2"/><path d="M8 16h8"/>
</symbol>
<symbol id="icon-sword" viewBox="0 0 24 24" fill="none" stroke="currentColor" stroke-width="2" stroke-linecap="round" stroke-linejoin="round">
  <path d="M4 20l5-5"/><path d="M9 15l9-9 2 2-9 9z"/><path d="M5 19l2 2"/>
</symbol>
<symbol id="icon-axe" viewBox="0 0 24 24" fill="none" stroke="currentColor" stroke-width="2" stroke-linecap="round" stroke-linejoin="round">
  <path d="M5 4h6l4 4-4 4H5z"/><path d="M11 8v12"/>
</symbol>
<symbol id="icon-bow" viewBox="0 0 24 24" fill="none" stroke="currentColor" stroke-width="2" stroke-linecap="round" stroke-linejoin="round">
  <path d="M18 5c-5 0-9 4-9 9 0 3 2 5 4 5"/><path d="M7 5v14"/><path d="M7 12h10"/>
</symbol>
<symbol id="icon-staff" viewBox="0 0 24 24" fill="none" stroke="currentColor" stroke-width="2" stroke-linecap="round" stroke-linejoin="round">
  <path d="M12 3a4 4 0 0 1 0 8"/><path d="M12 11v10"/>
</symbol>
<symbol id="icon-shield" viewBox="0 0 24 24" fill="none" stroke="currentColor" stroke-width="2" stroke-linecap="round" stroke-linejoin="round">
  <path d="M12 3l7 3v6c0 5-3.5 9-7 9s-7-4-7-9V6z"/>
</symbol>
<symbol id="icon-potion" viewBox="0 0 24 24" fill="none" stroke="currentColor" stroke-width="2" stroke-linecap="round" stroke-linejoin="round">
  <path d="M9 3h6"/><path d="M10 3v4l-4 6a6 6 0 0 0 12 0l-4-6V3"/>
</symbol>
<symbol id="icon-scroll" viewBox="0 0 24 24" fill="none" stroke="currentColor" stroke-width="2" stroke-linecap="round" stroke-linejoin="round">
  <path d="M7 5h10"/><path d="M7 5a3 3 0 0 0 0 6h10"/><path d="M17 11a3 3 0 0 1 0 6H7"/><path d="M7 17a3 3 0 0 1 0-6"/>
</symbol>
<symbol id="icon-coin" viewBox="0 0 24 24" fill="none" stroke="currentColor" stroke-width="2" stroke-linecap="round" stroke-linejoin="round">
  <circle cx="12" cy="12" r="8"/><path d="M9 9h6v6H9z"/>
</symbol>
<symbol id="icon-lockpick" viewBox="0 0 24 24" fill="none" stroke="currentColor" stroke-width="2" stroke-linecap="round" stroke-linejoin="round">
  <path d="M5 7a4 4 0 1 1 8 0v3"/><path d="M9 20l6-6"/><path d="M12 10h6v4"/>
</symbol>
<symbol id="icon-backpack" viewBox="0 0 24 24" fill="none" stroke="currentColor" stroke-width="2" stroke-linecap="round" stroke-linejoin="round">
  <path d="M7 6h10l1 4v10H6V10z"/><path d="M9 6V4h6v2"/><path d="M8 12h8"/>
</symbol>
<symbol id="icon-menu" viewBox="0 0 24 24" fill="none" stroke="currentColor" stroke-width="2" stroke-linecap="round" stroke-linejoin="round">
  <path d="M5 7h14"/><path d="M5 12h14"/><path d="M5 17h14"/>
</symbol>
<symbol id="icon-map" viewBox="0 0 24 24" fill="none" stroke="currentColor" stroke-width="2" stroke-linecap="round" stroke-linejoin="round">
  <path d="M4 6l6-2 4 2 6-2v14l-6 2-4-2-6 2z"/><path d="M10 6v12"/><path d="M14 8v12"/>
</symbol>
<symbol id="icon-quest" viewBox="0 0 24 24" fill="none" stroke="currentColor" stroke-width="2" stroke-linecap="round" stroke-linejoin="round">
  <path d="M6 4h12v16H6z"/><path d="M9 8h6"/><path d="M9 12h6"/><path d="M9 16h3"/>
</symbol>
<symbol id="icon-journal" viewBox="0 0 24 24" fill="none" stroke="currentColor" stroke-width="2" stroke-linecap="round" stroke-linejoin="round">
  <path d="M6 4h10a2 2 0 0 1 2 2v14H6z"/><path d="M6 10h12"/><path d="M10 4v16"/>
</symbol>
<symbol id="icon-dialogue" viewBox="0 0 24 24" fill="none" stroke="currentColor" stroke-width="2" stroke-linecap="round" stroke-linejoin="round">
  <path d="M6 7h12v8H9l-3 3z"/><path d="M9 11h6"/><path d="M9 9h6"/>
</symbol>
<symbol id="icon-settings" viewBox="0 0 24 24" fill="none" stroke="currentColor" stroke-width="2" stroke-linecap="round" stroke-linejoin="round">
  <circle cx="12" cy="12" r="3"/><path d="M4 12h2"/><path d="M18 12h2"/><path d="M12 4v2"/><path d="M12 18v2"/><path d="M6.3 6.3l1.4 1.4"/><path d="M16.3 16.3l1.4 1.4"/><path d="M6.3 17.7l1.4-1.4"/><path d="M16.3 7.7l1.4-1.4"/>
</symbol>
<symbol id="icon-audio" viewBox="0 0 24 24" fill="none" stroke="currentColor" stroke-width="2" stroke-linecap="round" stroke-linejoin="round">
  <path d="M5 10h4l4-4v12l-4-4H5z"/><path d="M17 9a3 3 0 0 1 0 6"/><path d="M19 7a6 6 0 0 1 0 12"/>
</symbol>
<symbol id="icon-play" viewBox="0 0 24 24" fill="none" stroke="currentColor" stroke-width="2" stroke-linecap="round" stroke-linejoin="round">
  <path d="M8 5v14l10-7z"/>
</symbol>
<symbol id="icon-pause" viewBox="0 0 24 24" fill="none" stroke="currentColor" stroke-width="2" stroke-linecap="round" stroke-linejoin="round">
  <path d="M8 5h3v14H8z"/><path d="M13 5h3v14h-3z"/>
</symbol>
<symbol id="icon-stop" viewBox="0 0 24 24" fill="none" stroke="currentColor" stroke-width="2" stroke-linecap="round" stroke-linejoin="round">
  <rect x="8" y="8" width="8" height="8" rx="2"/>
</symbol>
<symbol id="icon-back" viewBox="0 0 24 24" fill="none" stroke="currentColor" stroke-width="2" stroke-linecap="round" stroke-linejoin="round">
  <path d="M15 5l-7 7 7 7"/><path d="M8 12h8"/>
</symbol>
<symbol id="icon-close" viewBox="0 0 24 24" fill="none" stroke="currentColor" stroke-width="2" stroke-linecap="round" stroke-linejoin="round">
  <path d="M7 7l10 10"/><path d="M17 7L7 17"/>
</symbol>
<symbol id="icon-check" viewBox="0 0 24 24" fill="none" stroke="currentColor" stroke-width="2" stroke-linecap="round" stroke-linejoin="round">
  <path d="M5 13l5 5 9-12"/>
</symbol>
<symbol id="icon-warning" viewBox="0 0 24 24" fill="none" stroke="currentColor" stroke-width="2" stroke-linecap="round" stroke-linejoin="round">
  <path d="M12 4l9 16H3z"/><path d="M12 10v4"/><circle cx="12" cy="17" r="1"/>
</symbol>
<symbol id="icon-crown" viewBox="0 0 24 24" fill="none" stroke="currentColor" stroke-width="2" stroke-linecap="round" stroke-linejoin="round">
  <path d="M4 17h16v2H4z"/><path d="M4 17l2-9 6 5 6-5 2 9"/>
</symbol>
<symbol id="icon-mask" viewBox="0 0 24 24" fill="none" stroke="currentColor" stroke-width="2" stroke-linecap="round" stroke-linejoin="round">
  <path d="M5 7h14l-2 8-5 4-5-4z"/><path d="M9 11h0.01"/><path d="M15 11h0.01"/>
</symbol>
<symbol id="icon-eye" viewBox="0 0 24 24" fill="none" stroke="currentColor" stroke-width="2" stroke-linecap="round" stroke-linejoin="round">
  <path d="M3 12s4-6 9-6 9 6 9 6-4 6-9 6-9-6-9-6z"/><circle cx="12" cy="12" r="2"/>
</symbol>
<symbol id="icon-flame" viewBox="0 0 24 24" fill="none" stroke="currentColor" stroke-width="2" stroke-linecap="round" stroke-linejoin="round">
  <path d="M12 3s5 5 5 9-2.5 7-5 7-5-3-5-7 5-9 5-9z"/><path d="M12 10c1.5 1.5 1.5 4.5 0 6"/>
</symbol>
<symbol id="icon-bleed" viewBox="0 0 24 24" fill="none" stroke="currentColor" stroke-width="2" stroke-linecap="round" stroke-linejoin="round">
  <path d="M12 4l4 7a4 4 0 1 1-8 0z"/>
</symbol>
<symbol id="icon-poison" viewBox="0 0 24 24" fill="none" stroke="currentColor" stroke-width="2" stroke-linecap="round" stroke-linejoin="round">
  <circle cx="12" cy="12" r="6"/><path d="M8 10h8"/><path d="M9 14h6"/>
</symbol>
<symbol id="icon-burn" viewBox="0 0 24 24" fill="none" stroke="currentColor" stroke-width="2" stroke-linecap="round" stroke-linejoin="round">
  <path d="M12 3c2 2 4 5 4 8a4 4 0 1 1-8 0c0-3 2-6 4-8z"/><path d="M12 11v4"/>
</symbol>
<symbol id="icon-stun" viewBox="0 0 24 24" fill="none" stroke="currentColor" stroke-width="2" stroke-linecap="round" stroke-linejoin="round">
  <path d="M8 4h8l-4 6h5l-9 10 3-7H7z"/>
</symbol>
<symbol id="icon-slow" viewBox="0 0 24 24" fill="none" stroke="currentColor" stroke-width="2" stroke-linecap="round" stroke-linejoin="round">
  <circle cx="12" cy="12" r="8"/><path d="M12 7v5l3 3"/>
</symbol>
</svg>
